<svg width="0" height="0" class="hidden">
  <symbol xmlns="http://www.w3.org/2000/svg" xmlns:xlink="http://www.w3.org/1999/xlink" zoomAndPan="magnify" preserveAspectRatio="xMidYMid meet" version="1.0" viewBox="0 0 384 383.999986" id="icon-24hours">
    <defs>
      <clipPath id="5093eb681e">
        <path d="M 69.613281 69.613281 L 314.113281 69.613281 L 314.113281 314.113281 L 69.613281 314.113281 Z M 69.613281 69.613281 " clip-rule="nonzero"></path>
      </clipPath>
    </defs>
    <g clip-path="url(#5093eb681e)">
      <path fill="#009b4d" d="M 192 304.632812 C 129.894531 304.632812 79.367188 254.105469 79.367188 192 C 79.367188 129.894531 129.894531 79.367188 192 79.367188 C 254.105469 79.367188 304.632812 129.894531 304.632812 192 C 304.632812 254.105469 254.105469 304.632812 192 304.632812 Z M 304.765625 144.359375 C 298.601562 129.785156 289.777344 116.699219 278.539062 105.460938 C 267.300781 94.222656 254.210938 85.398438 239.636719 79.234375 C 224.546875 72.851562 208.519531 69.613281 192 69.613281 C 175.480469 69.613281 159.449219 72.851562 144.359375 79.234375 C 129.785156 85.398438 116.699219 94.222656 105.460938 105.460938 C 94.222656 116.699219 85.398438 129.785156 79.234375 144.359375 C 72.851562 159.449219 69.613281 175.480469 69.613281 192 C 69.613281 208.519531 72.851562 224.546875 79.234375 239.636719 C 85.398438 254.210938 94.222656 267.300781 105.460938 278.539062 C 116.699219 289.777344 129.785156 298.601562 144.359375 304.765625 C 159.449219 311.148438 175.480469 314.382812 192 314.382812 C 208.519531 314.382812 224.546875 311.148438 239.636719 304.765625 C 254.210938 298.601562 267.300781 289.777344 278.539062 278.539062 C 289.777344 267.300781 298.601562 254.210938 304.765625 239.636719 C 311.148438 224.546875 314.382812 208.519531 314.382812 192 C 314.382812 175.480469 311.148438 159.449219 304.765625 144.359375 " fill-opacity="1" fill-rule="nonzero"></path>
    </g>
    <path fill="#009b4d" d="M 250.65625 233.316406 L 196.875 189.675781 L 196.875 131.796875 C 196.875 129.101562 194.691406 126.921875 192 126.921875 C 189.308594 126.921875 187.121094 129.101562 187.121094 131.796875 L 187.121094 192 C 187.121094 193.46875 187.785156 194.859375 188.925781 195.785156 L 244.511719 240.886719 C 245.417969 241.621094 246.503906 241.976562 247.582031 241.976562 C 249 241.976562 250.40625 241.359375 251.371094 240.171875 C 253.066406 238.082031 252.746094 235.011719 250.65625 233.316406 " fill-opacity="1" fill-rule="nonzero"></path>
  </symbol>
  <symbol xmlns="http://www.w3.org/2000/svg" xmlns:xlink="http://www.w3.org/1999/xlink" zoomAndPan="magnify" preserveAspectRatio="xMidYMid meet" version="1.0" viewBox="0 0 384 383.999986" id="icon-ambulance">
    <defs>
      <clipPath id="61cdfc5289">
        <path d="M 86 66 L 320.882812 66 L 320.882812 303 L 86 303 Z M 86 66 " clip-rule="nonzero"></path>
      </clipPath>
    </defs>
    <g clip-path="url(#61cdfc5289)">
      <path fill="#009b4d" d="M 234.40625 302.394531 C 233.921875 302.394531 233.449219 302.3125 232.996094 302.144531 C 232.539062 301.976562 232.128906 301.734375 231.761719 301.417969 C 231.390625 301.101562 231.09375 300.730469 230.859375 300.304688 C 230.625 299.882812 230.472656 299.429688 230.402344 298.949219 C 230.332031 298.46875 230.347656 297.988281 230.453125 297.515625 C 230.554688 297.042969 230.738281 296.601562 231 296.191406 C 231.261719 295.785156 231.589844 295.433594 231.976562 295.144531 C 232.367188 294.851562 232.792969 294.640625 233.257812 294.503906 C 234.855469 294.023438 236.4375 293.511719 238.007812 292.960938 C 239.578125 292.410156 241.136719 291.824219 242.683594 291.207031 C 244.230469 290.585938 245.757812 289.933594 247.277344 289.246094 C 248.792969 288.558594 250.292969 287.835938 251.777344 287.082031 C 253.261719 286.328125 254.726562 285.542969 256.175781 284.722656 C 257.625 283.902344 259.054688 283.050781 260.46875 282.167969 C 261.878906 281.285156 263.269531 280.371094 264.640625 279.425781 C 266.011719 278.480469 267.359375 277.503906 268.6875 276.5 C 270.011719 275.496094 271.316406 274.460938 272.597656 273.398438 C 273.878906 272.332031 275.136719 271.242188 276.367188 270.121094 C 277.601562 269.003906 278.808594 267.855469 279.988281 266.683594 C 281.171875 265.511719 282.324219 264.3125 283.453125 263.085938 C 284.582031 261.863281 285.679688 260.613281 286.753906 259.339844 C 287.824219 258.066406 288.871094 256.769531 289.882812 255.449219 C 290.898438 254.128906 291.882812 252.789062 292.839844 251.425781 C 293.792969 250.058594 294.71875 248.675781 295.609375 247.269531 C 296.503906 245.867188 297.363281 244.441406 298.195312 243 C 299.023438 241.554688 299.820312 240.09375 300.585938 238.613281 C 301.351562 237.136719 302.082031 235.640625 302.78125 234.128906 C 303.480469 232.617188 304.144531 231.089844 304.773438 229.550781 C 305.402344 228.007812 306 226.457031 306.558594 224.886719 C 307.121094 223.320312 307.644531 221.742188 308.136719 220.148438 C 308.628906 218.558594 309.082031 216.957031 309.5 215.347656 C 309.921875 213.734375 310.304688 212.117188 310.652344 210.488281 C 311 208.859375 311.308594 207.222656 311.582031 205.582031 C 311.855469 203.941406 312.09375 202.292969 312.296875 200.640625 C 312.496094 198.988281 312.660156 197.332031 312.789062 195.671875 C 312.914062 194.011719 313.003906 192.347656 313.058594 190.683594 C 313.113281 189.019531 313.128906 187.355469 313.105469 185.691406 C 313.085938 184.027344 313.027344 182.363281 312.933594 180.699219 C 312.835938 179.039062 312.707031 177.378906 312.535156 175.722656 C 312.367188 174.066406 312.160156 172.414062 311.917969 170.769531 C 311.675781 169.121094 311.398438 167.480469 311.082031 165.847656 C 310.765625 164.210938 310.414062 162.585938 310.027344 160.964844 C 309.640625 159.347656 309.214844 157.738281 308.753906 156.136719 C 308.296875 154.535156 307.800781 152.945312 307.269531 151.367188 C 306.738281 149.789062 306.175781 148.226562 305.574219 146.671875 C 304.972656 145.121094 304.339844 143.582031 303.671875 142.054688 C 303 140.53125 302.300781 139.023438 301.5625 137.527344 C 300.828125 136.035156 300.058594 134.558594 299.257812 133.101562 C 298.457031 131.640625 297.621094 130.199219 296.753906 128.777344 C 295.890625 127.355469 294.992188 125.953125 294.066406 124.574219 C 293.136719 123.191406 292.175781 121.828125 291.1875 120.492188 C 290.199219 119.152344 289.183594 117.835938 288.132812 116.539062 C 287.085938 115.246094 286.011719 113.976562 284.90625 112.730469 C 283.800781 111.484375 282.671875 110.261719 281.511719 109.066406 C 280.355469 107.871094 279.171875 106.703125 277.960938 105.558594 C 276.75 104.417969 275.511719 103.300781 274.253906 102.214844 C 272.992188 101.125 271.710938 100.066406 270.402344 99.035156 C 269.09375 98.003906 267.765625 97.003906 266.414062 96.03125 C 265.0625 95.058594 263.6875 94.117188 262.292969 93.207031 C 260.898438 92.296875 259.488281 91.417969 258.054688 90.570312 C 256.621094 89.722656 255.167969 88.910156 253.699219 88.125 C 252.230469 87.34375 250.746094 86.59375 249.242188 85.875 C 247.738281 85.160156 246.222656 84.476562 244.6875 83.828125 C 243.15625 83.179688 241.609375 82.566406 240.046875 81.984375 C 238.488281 81.402344 236.914062 80.859375 235.328125 80.347656 C 233.746094 79.839844 232.148438 79.363281 230.542969 78.925781 C 228.9375 78.484375 227.324219 78.082031 225.699219 77.714844 C 224.074219 77.347656 222.445312 77.019531 220.804688 76.722656 C 219.167969 76.429688 217.523438 76.171875 215.871094 75.949219 C 214.222656 75.726562 212.566406 75.542969 210.910156 75.394531 C 209.25 75.25 207.589844 75.136719 205.925781 75.0625 C 204.265625 74.992188 202.601562 74.953125 200.933594 74.953125 C 197.96875 74.945312 195.007812 75.050781 192.050781 75.277344 C 189.09375 75.503906 186.152344 75.847656 183.222656 76.304688 C 180.292969 76.765625 177.386719 77.34375 174.503906 78.035156 C 171.617188 78.726562 168.765625 79.53125 165.949219 80.449219 C 163.128906 81.371094 160.351562 82.398438 157.613281 83.539062 C 154.875 84.679688 152.1875 85.929688 149.550781 87.28125 C 146.910156 88.636719 144.332031 90.09375 141.808594 91.65625 C 139.289062 93.214844 136.832031 94.875 134.441406 96.628906 C 132.054688 98.386719 129.738281 100.234375 127.496094 102.175781 C 125.253906 104.117188 123.089844 106.140625 121.011719 108.253906 C 118.929688 110.367188 116.9375 112.558594 115.03125 114.832031 C 113.125 117.105469 111.3125 119.449219 109.59375 121.863281 C 107.875 124.28125 106.253906 126.761719 104.730469 129.304688 C 103.210938 131.851562 101.792969 134.453125 100.476562 137.113281 C 99.164062 139.769531 97.957031 142.476562 96.859375 145.230469 C 95.761719 147.984375 94.773438 150.777344 93.898438 153.613281 C 93.820312 153.863281 93.714844 154.105469 93.589844 154.339844 C 93.464844 154.570312 93.316406 154.789062 93.148438 154.992188 C 92.976562 155.195312 92.789062 155.378906 92.585938 155.546875 C 92.378906 155.710938 92.160156 155.855469 91.925781 155.980469 C 91.691406 156.101562 91.445312 156.203125 91.191406 156.277344 C 90.941406 156.351562 90.679688 156.402344 90.417969 156.425781 C 90.15625 156.449219 89.890625 156.445312 89.628906 156.417969 C 89.367188 156.390625 89.109375 156.335938 88.855469 156.257812 C 88.601562 156.179688 88.359375 156.078125 88.128906 155.953125 C 87.894531 155.824219 87.679688 155.675781 87.476562 155.507812 C 87.273438 155.339844 87.085938 155.152344 86.921875 154.945312 C 86.753906 154.738281 86.609375 154.519531 86.488281 154.285156 C 86.363281 154.050781 86.265625 153.808594 86.191406 153.554688 C 86.117188 153.300781 86.066406 153.042969 86.042969 152.78125 C 86.019531 152.515625 86.019531 152.253906 86.050781 151.988281 C 86.078125 151.726562 86.128906 151.46875 86.207031 151.21875 C 86.738281 149.523438 87.308594 147.839844 87.914062 146.167969 C 88.519531 144.5 89.160156 142.84375 89.839844 141.199219 C 90.519531 139.558594 91.234375 137.933594 91.988281 136.324219 C 92.738281 134.710938 93.523438 133.121094 94.347656 131.542969 C 95.167969 129.96875 96.023438 128.414062 96.914062 126.875 C 97.804688 125.339844 98.730469 123.820312 99.6875 122.324219 C 100.648438 120.828125 101.636719 119.355469 102.660156 117.902344 C 103.683594 116.449219 104.738281 115.019531 105.828125 113.617188 C 106.914062 112.210938 108.03125 110.828125 109.179688 109.472656 C 110.328125 108.117188 111.503906 106.789062 112.710938 105.484375 C 113.917969 104.179688 115.152344 102.902344 116.417969 101.65625 C 117.679688 100.40625 118.972656 99.183594 120.289062 97.992188 C 121.609375 96.800781 122.953125 95.640625 124.320312 94.507812 C 125.691406 93.375 127.082031 92.273438 128.5 91.203125 C 129.917969 90.132812 131.359375 89.09375 132.824219 88.089844 C 134.289062 87.082031 135.773438 86.109375 137.28125 85.167969 C 138.789062 84.226562 140.316406 83.320312 141.863281 82.449219 C 143.414062 81.574219 144.980469 80.738281 146.5625 79.933594 C 148.148438 79.128906 149.75 78.363281 151.367188 77.628906 C 152.988281 76.898438 154.621094 76.203125 156.269531 75.542969 C 157.921875 74.882812 159.585938 74.257812 161.261719 73.671875 C 162.9375 73.085938 164.628906 72.539062 166.328125 72.027344 C 168.03125 71.515625 169.742188 71.042969 171.464844 70.605469 C 173.1875 70.171875 174.921875 69.773438 176.660156 69.417969 C 178.402344 69.058594 180.148438 68.738281 181.902344 68.457031 C 183.65625 68.175781 185.417969 67.933594 187.179688 67.730469 C 188.945312 67.527344 190.714844 67.363281 192.488281 67.238281 C 194.261719 67.113281 196.035156 67.03125 197.808594 66.984375 C 199.585938 66.9375 201.363281 66.929688 203.140625 66.964844 C 204.914062 66.996094 206.691406 67.070312 208.464844 67.179688 C 210.238281 67.292969 212.007812 67.441406 213.773438 67.632812 C 215.539062 67.824219 217.300781 68.050781 219.058594 68.320312 C 220.8125 68.589844 222.5625 68.894531 224.304688 69.242188 C 226.050781 69.585938 227.785156 69.972656 229.507812 70.394531 C 231.234375 70.816406 232.949219 71.277344 234.65625 71.777344 C 236.359375 72.273438 238.054688 72.8125 239.734375 73.386719 C 241.417969 73.957031 243.085938 74.570312 244.738281 75.21875 C 246.394531 75.867188 248.035156 76.550781 249.65625 77.269531 C 251.28125 77.992188 252.890625 78.746094 254.480469 79.539062 C 256.070312 80.328125 257.640625 81.15625 259.195312 82.019531 C 260.75 82.878906 262.285156 83.773438 263.796875 84.703125 C 265.3125 85.632812 266.804688 86.597656 268.277344 87.59375 C 269.75 88.589844 271.195312 89.617188 272.625 90.675781 C 274.050781 91.734375 275.449219 92.828125 276.828125 93.949219 C 278.207031 95.070312 279.558594 96.222656 280.882812 97.40625 C 282.210938 98.585938 283.511719 99.796875 284.78125 101.039062 C 286.054688 102.277344 287.300781 103.542969 288.515625 104.839844 C 289.734375 106.132812 290.921875 107.457031 292.078125 108.804688 C 293.238281 110.152344 294.363281 111.523438 295.460938 112.921875 C 296.558594 114.320312 297.625 115.738281 298.660156 117.183594 C 299.691406 118.628906 300.695312 120.097656 301.664062 121.585938 C 302.632812 123.074219 303.566406 124.585938 304.46875 126.117188 C 305.371094 127.644531 306.238281 129.195312 307.074219 130.765625 C 307.90625 132.335938 308.703125 133.921875 309.46875 135.527344 C 310.230469 137.128906 310.957031 138.75 311.648438 140.386719 C 312.339844 142.023438 312.996094 143.675781 313.613281 145.339844 C 314.230469 147.007812 314.8125 148.6875 315.355469 150.378906 C 315.898438 152.070312 316.402344 153.773438 316.871094 155.484375 C 317.339844 157.199219 317.769531 158.921875 318.160156 160.65625 C 318.550781 162.390625 318.90625 164.128906 319.21875 165.878906 C 319.535156 167.628906 319.808594 169.382812 320.046875 171.144531 C 320.28125 172.90625 320.480469 174.671875 320.636719 176.441406 C 320.796875 178.210938 320.914062 179.980469 320.996094 181.757812 C 321.074219 183.53125 321.113281 185.308594 321.117188 187.085938 C 321.101562 190.285156 320.960938 193.476562 320.691406 196.667969 C 320.425781 199.855469 320.03125 203.027344 319.511719 206.1875 C 318.992188 209.34375 318.347656 212.476562 317.578125 215.582031 C 316.8125 218.6875 315.921875 221.757812 314.910156 224.792969 C 313.898438 227.828125 312.765625 230.820312 311.515625 233.765625 C 310.269531 236.710938 308.902344 239.605469 307.425781 242.441406 C 305.945312 245.277344 304.355469 248.054688 302.65625 250.765625 C 300.957031 253.476562 299.15625 256.117188 297.246094 258.683594 C 295.339844 261.253906 293.332031 263.742188 291.222656 266.152344 C 289.117188 268.558594 286.921875 270.882812 284.628906 273.117188 C 282.339844 275.351562 279.964844 277.492188 277.503906 279.535156 C 275.042969 281.582031 272.503906 283.527344 269.890625 285.371094 C 267.277344 287.21875 264.59375 288.957031 261.839844 290.585938 C 259.085938 292.21875 256.273438 293.738281 253.402344 295.148438 C 250.527344 296.554688 247.601562 297.847656 244.628906 299.023438 C 241.652344 300.199219 238.632812 301.257812 235.574219 302.191406 C 235.195312 302.316406 234.804688 302.382812 234.40625 302.394531 Z M 234.40625 302.394531 " fill-opacity="1" fill-rule="nonzero"></path>
    </g>
    <path fill="#009b4d" d="M 214.320312 246.722656 L 187.832031 246.722656 C 187.171875 246.722656 186.515625 246.65625 185.867188 246.527344 C 185.21875 246.398438 184.589844 246.207031 183.980469 245.957031 C 183.371094 245.703125 182.789062 245.394531 182.242188 245.027344 C 181.691406 244.660156 181.183594 244.242188 180.714844 243.773438 C 180.25 243.308594 179.832031 242.796875 179.464844 242.25 C 179.097656 241.699219 178.789062 241.121094 178.535156 240.507812 C 178.28125 239.898438 178.089844 239.269531 177.960938 238.621094 C 177.832031 237.972656 177.769531 237.320312 177.769531 236.65625 L 177.769531 210.25 L 151.359375 210.25 C 150.699219 210.25 150.046875 210.1875 149.398438 210.058594 C 148.75 209.929688 148.121094 209.738281 147.511719 209.484375 C 146.898438 209.230469 146.320312 208.921875 145.769531 208.554688 C 145.21875 208.1875 144.710938 207.769531 144.246094 207.304688 C 143.777344 206.835938 143.359375 206.328125 142.992188 205.777344 C 142.625 205.230469 142.316406 204.648438 142.0625 204.039062 C 141.8125 203.429688 141.621094 202.796875 141.492188 202.152344 C 141.363281 201.503906 141.296875 200.847656 141.296875 200.1875 L 141.296875 173.699219 C 141.296875 173.039062 141.363281 172.382812 141.492188 171.734375 C 141.621094 171.089844 141.8125 170.457031 142.0625 169.847656 C 142.316406 169.238281 142.625 168.65625 142.992188 168.109375 C 143.359375 167.558594 143.777344 167.050781 144.246094 166.582031 C 144.710938 166.117188 145.21875 165.699219 145.769531 165.332031 C 146.320312 164.964844 146.898438 164.65625 147.511719 164.402344 C 148.121094 164.148438 148.75 163.957031 149.398438 163.828125 C 150.046875 163.699219 150.699219 163.636719 151.359375 163.636719 L 177.769531 163.636719 L 177.769531 137.230469 C 177.769531 136.566406 177.832031 135.914062 177.960938 135.265625 C 178.089844 134.617188 178.28125 133.988281 178.535156 133.378906 C 178.789062 132.765625 179.097656 132.1875 179.464844 131.636719 C 179.832031 131.089844 180.25 130.578125 180.714844 130.113281 C 181.183594 129.644531 181.691406 129.226562 182.242188 128.859375 C 182.789062 128.492188 183.371094 128.183594 183.980469 127.929688 C 184.589844 127.679688 185.21875 127.488281 185.867188 127.359375 C 186.515625 127.230469 187.171875 127.164062 187.832031 127.164062 L 214.320312 127.164062 C 214.980469 127.164062 215.636719 127.230469 216.28125 127.359375 C 216.929688 127.488281 217.558594 127.679688 218.171875 127.929688 C 218.78125 128.183594 219.359375 128.492188 219.910156 128.859375 C 220.460938 129.226562 220.96875 129.644531 221.4375 130.113281 C 221.902344 130.578125 222.320312 131.089844 222.6875 131.636719 C 223.054688 132.1875 223.363281 132.765625 223.617188 133.378906 C 223.871094 133.988281 224.0625 134.617188 224.191406 135.265625 C 224.320312 135.914062 224.382812 136.566406 224.382812 137.230469 L 224.382812 163.636719 L 250.789062 163.636719 C 251.453125 163.636719 252.105469 163.699219 252.753906 163.828125 C 253.402344 163.957031 254.03125 164.148438 254.640625 164.402344 C 255.253906 164.65625 255.832031 164.964844 256.382812 165.332031 C 256.929688 165.699219 257.4375 166.117188 257.90625 166.582031 C 258.375 167.050781 258.789062 167.558594 259.15625 168.109375 C 259.523438 168.65625 259.835938 169.238281 260.089844 169.847656 C 260.339844 170.457031 260.53125 171.089844 260.660156 171.734375 C 260.789062 172.382812 260.855469 173.039062 260.855469 173.699219 L 260.855469 200.1875 C 260.855469 200.847656 260.789062 201.503906 260.660156 202.152344 C 260.53125 202.796875 260.339844 203.429688 260.089844 204.039062 C 259.835938 204.648438 259.523438 205.230469 259.15625 205.777344 C 258.789062 206.328125 258.375 206.835938 257.90625 207.304688 C 257.4375 207.769531 256.929688 208.1875 256.382812 208.554688 C 255.832031 208.921875 255.253906 209.230469 254.640625 209.484375 C 254.03125 209.738281 253.402344 209.929688 252.753906 210.058594 C 252.105469 210.1875 251.453125 210.25 250.789062 210.25 L 224.382812 210.25 L 224.382812 236.65625 C 224.382812 237.320312 224.320312 237.972656 224.191406 238.621094 C 224.0625 239.269531 223.871094 239.898438 223.617188 240.507812 C 223.363281 241.121094 223.054688 241.699219 222.6875 242.25 C 222.320312 242.796875 221.902344 243.308594 221.4375 243.773438 C 220.96875 244.242188 220.460938 244.660156 219.910156 245.027344 C 219.359375 245.394531 218.78125 245.703125 218.171875 245.957031 C 217.558594 246.207031 216.929688 246.398438 216.28125 246.527344 C 215.636719 246.65625 214.980469 246.722656 214.320312 246.722656 Z M 151.359375 171.6875 C 151.09375 171.6875 150.835938 171.738281 150.589844 171.839844 C 150.34375 171.941406 150.125 172.085938 149.9375 172.277344 C 149.75 172.464844 149.605469 172.683594 149.5 172.929688 C 149.398438 173.175781 149.347656 173.433594 149.347656 173.699219 L 149.347656 200.1875 C 149.347656 200.453125 149.398438 200.710938 149.5 200.957031 C 149.605469 201.203125 149.75 201.421875 149.9375 201.609375 C 150.125 201.800781 150.34375 201.945312 150.589844 202.046875 C 150.835938 202.148438 151.09375 202.199219 151.359375 202.199219 L 181.792969 202.199219 C 182.058594 202.199219 182.320312 202.226562 182.578125 202.277344 C 182.839844 202.328125 183.089844 202.40625 183.335938 202.507812 C 183.578125 202.605469 183.808594 202.730469 184.03125 202.878906 C 184.25 203.023438 184.453125 203.191406 184.640625 203.378906 C 184.828125 203.566406 184.992188 203.769531 185.140625 203.988281 C 185.289062 204.207031 185.410156 204.441406 185.511719 204.683594 C 185.613281 204.929688 185.691406 205.179688 185.742188 205.441406 C 185.792969 205.699219 185.820312 205.960938 185.820312 206.226562 L 185.820312 236.65625 C 185.820312 236.925781 185.871094 237.179688 185.972656 237.429688 C 186.074219 237.675781 186.21875 237.890625 186.410156 238.082031 C 186.597656 238.269531 186.816406 238.414062 187.0625 238.515625 C 187.308594 238.621094 187.566406 238.671875 187.832031 238.671875 L 214.320312 238.671875 C 214.585938 238.671875 214.84375 238.621094 215.089844 238.515625 C 215.335938 238.414062 215.554688 238.269531 215.742188 238.082031 C 215.929688 237.890625 216.078125 237.675781 216.179688 237.429688 C 216.28125 237.179688 216.332031 236.925781 216.332031 236.65625 L 216.332031 206.226562 C 216.332031 205.960938 216.359375 205.699219 216.410156 205.441406 C 216.460938 205.179688 216.539062 204.929688 216.640625 204.683594 C 216.738281 204.441406 216.863281 204.207031 217.011719 203.988281 C 217.15625 203.769531 217.324219 203.566406 217.511719 203.378906 C 217.699219 203.191406 217.902344 203.023438 218.121094 202.878906 C 218.339844 202.730469 218.574219 202.605469 218.816406 202.507812 C 219.0625 202.40625 219.3125 202.328125 219.574219 202.277344 C 219.832031 202.226562 220.09375 202.199219 220.359375 202.199219 L 250.789062 202.199219 C 251.058594 202.199219 251.3125 202.148438 251.5625 202.046875 C 251.808594 201.945312 252.023438 201.800781 252.214844 201.609375 C 252.402344 201.421875 252.546875 201.203125 252.648438 200.957031 C 252.753906 200.710938 252.804688 200.453125 252.804688 200.1875 L 252.804688 173.699219 C 252.804688 173.433594 252.753906 173.175781 252.648438 172.929688 C 252.546875 172.683594 252.402344 172.464844 252.214844 172.277344 C 252.023438 172.085938 251.808594 171.941406 251.5625 171.839844 C 251.3125 171.738281 251.058594 171.6875 250.789062 171.6875 L 220.359375 171.6875 C 220.09375 171.6875 219.832031 171.660156 219.574219 171.609375 C 219.3125 171.558594 219.0625 171.480469 218.816406 171.378906 C 218.574219 171.277344 218.339844 171.15625 218.121094 171.007812 C 217.902344 170.863281 217.699219 170.695312 217.511719 170.507812 C 217.324219 170.320312 217.15625 170.117188 217.011719 169.898438 C 216.863281 169.679688 216.738281 169.445312 216.640625 169.203125 C 216.539062 168.957031 216.460938 168.707031 216.410156 168.445312 C 216.359375 168.1875 216.332031 167.925781 216.332031 167.660156 L 216.332031 137.230469 C 216.332031 136.960938 216.28125 136.703125 216.179688 136.457031 C 216.078125 136.210938 215.929688 135.992188 215.742188 135.804688 C 215.554688 135.617188 215.335938 135.472656 215.089844 135.367188 C 214.84375 135.265625 214.585938 135.214844 214.320312 135.214844 L 187.832031 135.214844 C 187.566406 135.214844 187.308594 135.265625 187.0625 135.367188 C 186.816406 135.472656 186.597656 135.617188 186.410156 135.804688 C 186.21875 135.996094 186.074219 136.210938 185.972656 136.457031 C 185.871094 136.703125 185.820312 136.960938 185.820312 137.230469 L 185.820312 167.660156 C 185.820312 167.925781 185.792969 168.1875 185.742188 168.445312 C 185.691406 168.707031 185.613281 168.957031 185.511719 169.203125 C 185.410156 169.445312 185.289062 169.679688 185.140625 169.898438 C 184.992188 170.117188 184.828125 170.320312 184.640625 170.507812 C 184.453125 170.695312 184.25 170.863281 184.03125 171.007812 C 183.808594 171.15625 183.578125 171.277344 183.335938 171.378906 C 183.089844 171.480469 182.839844 171.558594 182.578125 171.609375 C 182.320312 171.660156 182.058594 171.6875 181.792969 171.6875 Z M 151.359375 171.6875 " fill-opacity="1" fill-rule="nonzero"></path>
    <path fill="#009b4d" d="M 208.039062 273.429688 C 196.507812 261.878906 180.746094 252.800781 173.339844 259.984375 C 169.113281 263.777344 165.554688 268.117188 162.671875 273.007812 C 153.757812 270.753906 142.707031 263.769531 133.207031 254.269531 C 123.707031 244.769531 117.246094 234.644531 114.730469 225.910156 C 119.964844 222.871094 124.277344 218.84375 127.671875 213.832031 C 134.453125 206.324219 125.4375 190.789062 114.003906 179.355469 C 102.574219 167.921875 86.570312 158.683594 79.203125 166.070312 C 79.203125 166.070312 79.042969 166.273438 78.964844 166.351562 L 78.679688 166.59375 C 71.273438 173.980469 62.882812 184.347656 63.484375 198.960938 C 64.511719 222.1875 81.601562 253.019531 107.988281 279.46875 C 136.929688 308.433594 166.296875 324.535156 189.460938 324.535156 C 190.980469 324.535156 192.476562 324.46875 193.949219 324.332031 C 204.335938 323.328125 214.320312 315.316406 220.859375 308.773438 C 220.859375 308.773438 221.023438 308.574219 221.101562 308.492188 L 221.382812 308.25 C 228.75 300.863281 219.632812 285.023438 208.039062 273.429688 Z M 193.164062 316.300781 C 172.171875 318.335938 142.382812 302.394531 113.804688 273.734375 C 89.027344 249.054688 72.480469 219.570312 71.535156 198.597656 C 71.03125 187.144531 78.117188 178.46875 84.335938 172.289062 C 84.335938 172.289062 84.496094 172.089844 84.578125 172.007812 L 84.859375 171.765625 C 85.121094 171.503906 87.214844 170.960938 92.125 173.214844 C 98.164062 176.273438 103.53125 180.238281 108.226562 185.113281 C 119.117188 196 122.316406 205.238281 121.8125 207.894531 C 121.539062 207.867188 121.265625 207.867188 120.988281 207.894531 C 116.964844 207.894531 109.980469 202.964844 100.238281 193.222656 C 96.582031 189.628906 93.394531 185.65625 90.675781 181.308594 C 90.539062 181.082031 90.382812 180.871094 90.203125 180.675781 C 90.023438 180.480469 89.828125 180.304688 89.613281 180.148438 C 89.402344 179.992188 89.175781 179.859375 88.933594 179.75 C 88.695312 179.636719 88.445312 179.550781 88.1875 179.488281 C 87.933594 179.425781 87.671875 179.386719 87.40625 179.375 C 87.144531 179.363281 86.878906 179.378906 86.617188 179.421875 C 86.355469 179.460938 86.101562 179.527344 85.855469 179.617188 C 85.605469 179.707031 85.367188 179.820312 85.140625 179.960938 C 84.917969 180.097656 84.707031 180.253906 84.511719 180.433594 C 84.316406 180.613281 84.140625 180.808594 83.984375 181.023438 C 83.828125 181.234375 83.695312 181.460938 83.582031 181.703125 C 83.472656 181.941406 83.382812 182.191406 83.320312 182.449219 C 83.257812 182.703125 83.222656 182.964844 83.210938 183.230469 C 83.199219 183.492188 83.214844 183.757812 83.253906 184.019531 C 83.296875 184.277344 83.359375 184.535156 83.453125 184.78125 C 83.542969 185.03125 83.65625 185.269531 83.792969 185.492188 C 86.847656 190.398438 90.429688 194.882812 94.542969 198.9375 C 101.34375 205.742188 108.992188 212.667969 116.058594 215.042969 C 113 217.878906 109.011719 220.496094 104.867188 220.496094 C 104.601562 220.496094 104.339844 220.519531 104.082031 220.574219 C 103.824219 220.625 103.570312 220.699219 103.328125 220.800781 C 103.082031 220.902344 102.851562 221.027344 102.628906 221.175781 C 102.410156 221.320312 102.207031 221.488281 102.019531 221.675781 C 101.832031 221.863281 101.667969 222.066406 101.519531 222.285156 C 101.371094 222.503906 101.25 222.738281 101.148438 222.980469 C 101.046875 223.226562 100.96875 223.476562 100.917969 223.734375 C 100.867188 223.996094 100.839844 224.257812 100.839844 224.519531 C 100.839844 224.785156 100.867188 225.046875 100.917969 225.304688 C 100.96875 225.566406 101.046875 225.816406 101.148438 226.0625 C 101.25 226.304688 101.371094 226.539062 101.519531 226.757812 C 101.667969 226.976562 101.832031 227.179688 102.019531 227.367188 C 102.207031 227.554688 102.410156 227.722656 102.628906 227.867188 C 102.851562 228.015625 103.082031 228.140625 103.328125 228.238281 C 103.570312 228.339844 103.824219 228.417969 104.082031 228.46875 C 104.339844 228.519531 104.601562 228.546875 104.867188 228.546875 C 105.539062 228.542969 106.210938 228.503906 106.878906 228.425781 C 109.859375 238.488281 117.265625 250.023438 127.308594 260.046875 C 137.632812 270.371094 149.449219 277.859375 159.671875 280.675781 C 159.523438 281.507812 159.445312 282.347656 159.433594 283.191406 C 159.433594 283.457031 159.457031 283.71875 159.507812 283.976562 C 159.5625 284.238281 159.636719 284.488281 159.738281 284.734375 C 159.839844 284.976562 159.964844 285.210938 160.109375 285.429688 C 160.257812 285.648438 160.425781 285.851562 160.609375 286.039062 C 160.796875 286.226562 161 286.394531 161.222656 286.539062 C 161.441406 286.6875 161.671875 286.808594 161.917969 286.910156 C 162.160156 287.011719 162.414062 287.089844 162.671875 287.140625 C 162.933594 287.191406 163.195312 287.21875 163.457031 287.21875 C 163.722656 287.21875 163.984375 287.191406 164.242188 287.140625 C 164.503906 287.089844 164.753906 287.011719 165 286.910156 C 165.242188 286.808594 165.472656 286.6875 165.695312 286.539062 C 165.914062 286.394531 166.117188 286.226562 166.304688 286.039062 C 166.492188 285.851562 166.65625 285.648438 166.804688 285.429688 C 166.953125 285.210938 167.074219 284.976562 167.175781 284.734375 C 167.277344 284.488281 167.355469 284.238281 167.40625 283.976562 C 167.457031 283.71875 167.484375 283.457031 167.484375 283.191406 C 167.484375 277.796875 174.265625 269.808594 178.554688 266.042969 L 178.734375 265.863281 C 180.023438 264.574219 190.085938 267.152344 202.164062 279.207031 C 207.035156 283.90625 211 289.273438 214.058594 295.308594 C 216.3125 300.21875 215.769531 302.332031 215.507812 302.574219 C 215.246094 302.816406 215.347656 302.777344 215.265625 302.855469 C 215 302.878906 214.738281 302.925781 214.480469 302.996094 C 211.863281 303.761719 202.164062 297.867188 193.105469 288.910156 C 189.449219 285.3125 186.261719 281.339844 183.542969 276.992188 C 183.40625 276.765625 183.25 276.554688 183.070312 276.363281 C 182.890625 276.167969 182.695312 275.992188 182.480469 275.835938 C 182.269531 275.679688 182.042969 275.542969 181.800781 275.433594 C 181.5625 275.320312 181.3125 275.234375 181.054688 275.171875 C 180.800781 275.109375 180.539062 275.070312 180.273438 275.0625 C 180.011719 275.050781 179.746094 275.0625 179.484375 275.105469 C 179.222656 275.144531 178.96875 275.210938 178.722656 275.300781 C 178.472656 275.390625 178.234375 275.507812 178.007812 275.644531 C 177.78125 275.78125 177.574219 275.9375 177.378906 276.117188 C 177.183594 276.296875 177.007812 276.492188 176.851562 276.707031 C 176.695312 276.921875 176.5625 277.148438 176.449219 277.386719 C 176.339844 277.625 176.25 277.875 176.1875 278.132812 C 176.125 278.390625 176.089844 278.648438 176.078125 278.914062 C 176.066406 279.179688 176.082031 279.441406 176.121094 279.703125 C 176.164062 279.964844 176.226562 280.21875 176.320312 280.46875 C 176.410156 280.714844 176.523438 280.953125 176.660156 281.179688 C 179.714844 286.085938 183.296875 290.566406 187.410156 294.625 C 190.628906 297.84375 199.484375 306.15625 207.65625 309.621094 C 203.390625 312.859375 198.175781 315.820312 193.164062 316.300781 Z M 193.164062 316.300781 " fill-opacity="1" fill-rule="nonzero"></path>
  </symbol>
  <symbol xmlns="http://www.w3.org/2000/svg" xmlns:xlink="http://www.w3.org/1999/xlink" zoomAndPan="magnify" preserveAspectRatio="xMidYMid meet" version="1.0" viewBox="0 0 384 383.999986" id="icon-file">
    <defs>
      <clipPath id="392792f728">
        <path d="M 94.273438 65.148438 L 290 65.148438 L 290 318.648438 L 94.273438 318.648438 Z M 94.273438 65.148438 " clip-rule="nonzero"></path>
      </clipPath>
    </defs>
    <g clip-path="url(#392792f728)">
      <path fill="#009b4d" d="M 278.773438 92.964844 L 237.023438 92.964844 L 215.019531 71.078125 C 214.667969 70.726562 214.316406 70.453125 213.960938 70.179688 C 210.484375 67.285156 205.050781 65.214844 200.75 65.214844 L 105.21875 65.214844 C 99.199219 65.214844 94.273438 70.136719 94.273438 76.160156 L 94.273438 280.085938 C 94.273438 286.105469 99.199219 291.03125 105.21875 291.03125 L 117.726562 291.03125 L 117.726562 307.839844 C 117.726562 313.859375 122.652344 318.785156 128.671875 318.785156 L 278.773438 318.785156 C 284.792969 318.785156 289.71875 313.859375 289.71875 307.839844 L 289.71875 103.871094 C 289.71875 97.851562 284.792969 92.964844 278.773438 92.964844 Z M 211.695312 80.300781 L 251.019531 119.351562 L 213.726562 119.351562 C 212.59375 119.351562 211.65625 118.414062 211.65625 117.28125 L 211.65625 80.300781 Z M 103.144531 280.085938 L 103.144531 76.160156 C 103.144531 75.023438 104.082031 74.085938 105.21875 74.085938 L 200.75 74.085938 C 201.414062 74.085938 202.15625 74.203125 202.941406 74.398438 C 202.863281 74.945312 202.824219 75.53125 202.824219 76.121094 L 202.824219 117.242188 C 202.824219 123.261719 207.746094 128.1875 213.765625 128.1875 L 255.320312 128.1875 C 255.945312 128.1875 256.53125 128.148438 257.039062 128.070312 C 257.234375 128.851562 257.351562 129.59375 257.351562 130.257812 L 257.351562 280.046875 C 257.351562 281.179688 256.414062 282.117188 255.28125 282.117188 L 105.21875 282.117188 C 104.082031 282.15625 103.144531 281.21875 103.144531 280.085938 Z M 280.84375 307.839844 C 280.84375 308.972656 279.90625 309.910156 278.773438 309.910156 L 128.671875 309.910156 C 127.535156 309.910156 126.597656 308.972656 126.597656 307.839844 L 126.597656 291.03125 L 255.320312 291.03125 C 261.339844 291.03125 266.265625 286.105469 266.265625 280.085938 L 266.265625 130.296875 C 266.265625 125.996094 264.191406 120.640625 261.300781 117.164062 C 261.027344 116.8125 260.714844 116.460938 260.324219 116.066406 L 245.976562 101.839844 L 278.773438 101.839844 C 279.90625 101.839844 280.84375 102.777344 280.84375 103.910156 Z M 232.492188 161.371094 L 128.046875 161.371094 C 125.933594 161.371094 124.253906 159.652344 124.253906 157.582031 C 124.253906 155.507812 125.972656 153.789062 128.046875 153.789062 L 232.492188 153.789062 C 234.601562 153.789062 236.28125 155.507812 236.28125 157.582031 C 236.28125 159.652344 234.601562 161.371094 232.492188 161.371094 Z M 232.492188 189.125 L 128.046875 189.125 C 125.933594 189.125 124.253906 187.40625 124.253906 185.335938 C 124.253906 183.261719 125.972656 181.542969 128.046875 181.542969 L 232.492188 181.542969 C 234.601562 181.542969 236.28125 183.261719 236.28125 185.335938 C 236.28125 187.40625 234.601562 189.125 232.492188 189.125 Z M 232.492188 216.839844 L 128.046875 216.839844 C 125.933594 216.839844 124.253906 215.121094 124.253906 213.046875 C 124.253906 210.976562 125.972656 209.257812 128.046875 209.257812 L 232.492188 209.257812 C 234.601562 209.257812 236.28125 210.976562 236.28125 213.046875 C 236.28125 215.121094 234.601562 216.839844 232.492188 216.839844 Z M 172.839844 244.59375 L 128.046875 244.59375 C 125.933594 244.59375 124.253906 242.875 124.253906 240.800781 C 124.253906 238.691406 125.972656 237.011719 128.046875 237.011719 L 172.839844 237.011719 C 174.953125 237.011719 176.632812 238.730469 176.632812 240.800781 C 176.632812 242.875 174.953125 244.59375 172.839844 244.59375 Z M 172.839844 244.59375 " fill-opacity="1" fill-rule="nonzero"></path>
    </g>
  </symbol>
  <symbol xmlns="http://www.w3.org/2000/svg" xmlns:xlink="http://www.w3.org/1999/xlink" zoomAndPan="magnify" preserveAspectRatio="xMidYMid meet" version="1.0" viewBox="0 0 384 383.999986" id="icon-location">
    <defs>
      <clipPath id="a4f7856115">
        <path d="M 92 76 L 292 76 L 292 345.648438 L 92 345.648438 Z M 92 76 " clip-rule="nonzero"></path>
      </clipPath>
    </defs>
    <path fill="#009b4d" d="M 191.996094 226.789062 C 193.65625 226.789062 195.3125 226.707031 196.960938 226.542969 C 198.613281 226.382812 200.25 226.140625 201.878906 225.816406 C 203.503906 225.492188 205.113281 225.089844 206.699219 224.609375 C 208.285156 224.125 209.847656 223.566406 211.378906 222.933594 C 212.914062 222.296875 214.410156 221.589844 215.871094 220.808594 C 217.335938 220.027344 218.757812 219.175781 220.136719 218.253906 C 221.515625 217.332031 222.847656 216.34375 224.128906 215.292969 C 225.410156 214.238281 226.636719 213.125 227.8125 211.953125 C 228.984375 210.78125 230.097656 209.554688 231.148438 208.269531 C 232.203125 206.988281 233.1875 205.65625 234.109375 204.277344 C 235.03125 202.898438 235.882812 201.476562 236.664062 200.015625 C 237.449219 198.550781 238.15625 197.054688 238.789062 195.523438 C 239.425781 193.988281 239.984375 192.429688 240.464844 190.839844 C 240.945312 189.253906 241.347656 187.648438 241.671875 186.019531 C 241.996094 184.394531 242.238281 182.753906 242.402344 181.105469 C 242.566406 179.453125 242.644531 177.796875 242.644531 176.140625 C 242.644531 174.480469 242.566406 172.824219 242.402344 171.175781 C 242.238281 169.523438 241.996094 167.886719 241.671875 166.257812 C 241.347656 164.632812 240.945312 163.023438 240.464844 161.4375 C 239.984375 159.847656 239.425781 158.289062 238.789062 156.757812 C 238.15625 155.222656 237.449219 153.726562 236.664062 152.261719 C 235.882812 150.800781 235.03125 149.378906 234.109375 148 C 233.1875 146.621094 232.203125 145.289062 231.148438 144.007812 C 230.097656 142.726562 228.984375 141.496094 227.8125 140.324219 C 226.636719 139.152344 225.410156 138.039062 224.128906 136.988281 C 222.847656 135.933594 221.515625 134.945312 220.136719 134.027344 C 218.757812 133.105469 217.335938 132.253906 215.871094 131.46875 C 214.410156 130.6875 212.914062 129.980469 211.378906 129.34375 C 209.847656 128.710938 208.285156 128.152344 206.699219 127.671875 C 205.113281 127.1875 203.503906 126.785156 201.878906 126.460938 C 200.25 126.140625 198.613281 125.894531 196.960938 125.734375 C 195.3125 125.570312 193.65625 125.488281 191.996094 125.488281 C 190.339844 125.488281 188.683594 125.570312 187.03125 125.734375 C 185.382812 125.894531 183.742188 126.140625 182.117188 126.460938 C 180.488281 126.785156 178.882812 127.1875 177.292969 127.671875 C 175.707031 128.152344 174.148438 128.710938 172.613281 129.34375 C 171.082031 129.980469 169.582031 130.6875 168.121094 131.46875 C 166.65625 132.253906 165.238281 133.105469 163.859375 134.027344 C 162.476562 134.945312 161.148438 135.933594 159.867188 136.988281 C 158.582031 138.039062 157.355469 139.152344 156.183594 140.324219 C 155.007812 141.496094 153.898438 142.726562 152.84375 144.007812 C 151.792969 145.289062 150.804688 146.621094 149.882812 148 C 148.960938 149.378906 148.109375 150.800781 147.328125 152.261719 C 146.546875 153.726562 145.835938 155.222656 145.203125 156.757812 C 144.566406 158.289062 144.011719 159.847656 143.527344 161.4375 C 143.046875 163.023438 142.644531 164.632812 142.320312 166.257812 C 141.996094 167.886719 141.753906 169.523438 141.589844 171.175781 C 141.429688 172.824219 141.347656 174.480469 141.347656 176.140625 C 141.351562 177.796875 141.433594 179.449219 141.601562 181.101562 C 141.765625 182.75 142.011719 184.386719 142.335938 186.015625 C 142.660156 187.640625 143.066406 189.246094 143.550781 190.832031 C 144.03125 192.417969 144.59375 193.976562 145.226562 195.507812 C 145.863281 197.039062 146.574219 198.535156 147.355469 199.996094 C 148.136719 201.457031 148.988281 202.878906 149.910156 204.257812 C 150.832031 205.632812 151.820312 206.964844 152.871094 208.246094 C 153.925781 209.527344 155.035156 210.753906 156.210938 211.925781 C 157.382812 213.097656 158.609375 214.210938 159.890625 215.261719 C 161.171875 216.316406 162.5 217.300781 163.878906 218.222656 C 165.257812 219.144531 166.675781 219.996094 168.140625 220.78125 C 169.601562 221.5625 171.097656 222.273438 172.628906 222.910156 C 174.160156 223.542969 175.71875 224.105469 177.304688 224.585938 C 178.890625 225.070312 180.496094 225.472656 182.121094 225.800781 C 183.746094 226.125 185.386719 226.371094 187.035156 226.535156 C 188.683594 226.703125 190.339844 226.785156 191.996094 226.789062 Z M 191.996094 134.496094 C 193.367188 134.496094 194.730469 134.5625 196.09375 134.699219 C 197.453125 134.832031 198.804688 135.03125 200.148438 135.300781 C 201.492188 135.566406 202.816406 135.898438 204.125 136.296875 C 205.433594 136.691406 206.722656 137.152344 207.984375 137.675781 C 209.25 138.199219 210.484375 138.785156 211.691406 139.429688 C 212.898438 140.074219 214.070312 140.777344 215.210938 141.539062 C 216.347656 142.296875 217.445312 143.113281 218.503906 143.980469 C 219.5625 144.847656 220.574219 145.765625 221.542969 146.734375 C 222.507812 147.703125 223.425781 148.714844 224.296875 149.773438 C 225.164062 150.828125 225.976562 151.925781 226.738281 153.066406 C 227.496094 154.203125 228.199219 155.375 228.84375 156.582031 C 229.492188 157.789062 230.074219 159.023438 230.597656 160.289062 C 231.121094 161.554688 231.582031 162.839844 231.980469 164.148438 C 232.378906 165.460938 232.710938 166.785156 232.976562 168.128906 C 233.242188 169.46875 233.445312 170.820312 233.578125 172.183594 C 233.710938 173.542969 233.777344 174.910156 233.777344 176.277344 C 233.777344 177.648438 233.710938 179.011719 233.578125 180.375 C 233.445312 181.734375 233.242188 183.085938 232.976562 184.429688 C 232.710938 185.773438 232.378906 187.097656 231.980469 188.40625 C 231.582031 189.714844 231.121094 191.003906 230.597656 192.269531 C 230.074219 193.53125 229.492188 194.765625 228.84375 195.972656 C 228.199219 197.179688 227.496094 198.351562 226.738281 199.492188 C 225.976562 200.628906 225.164062 201.726562 224.296875 202.785156 C 223.425781 203.84375 222.507812 204.855469 221.542969 205.824219 C 220.574219 206.789062 219.5625 207.707031 218.503906 208.578125 C 217.445312 209.445312 216.347656 210.257812 215.210938 211.019531 C 214.070312 211.777344 212.898438 212.480469 211.691406 213.128906 C 210.484375 213.773438 209.25 214.355469 207.984375 214.878906 C 206.722656 215.402344 205.433594 215.863281 204.125 216.261719 C 202.816406 216.660156 201.492188 216.992188 200.148438 217.257812 C 198.804688 217.523438 197.453125 217.726562 196.09375 217.859375 C 194.730469 217.992188 193.367188 218.0625 191.996094 218.0625 C 190.628906 218.0625 189.261719 217.992188 187.902344 217.859375 C 186.539062 217.726562 185.1875 217.523438 183.84375 217.257812 C 182.503906 216.992188 181.175781 216.660156 179.867188 216.261719 C 178.558594 215.863281 177.273438 215.402344 176.007812 214.878906 C 174.742188 214.355469 173.507812 213.773438 172.300781 213.128906 C 171.09375 212.480469 169.921875 211.777344 168.785156 211.019531 C 167.644531 210.257812 166.546875 209.445312 165.492188 208.578125 C 164.433594 207.707031 163.421875 206.789062 162.453125 205.824219 C 161.484375 204.855469 160.566406 203.84375 159.699219 202.785156 C 158.832031 201.726562 158.015625 200.628906 157.257812 199.492188 C 156.496094 198.351562 155.792969 197.179688 155.148438 195.972656 C 154.503906 194.765625 153.917969 193.53125 153.394531 192.269531 C 152.871094 191.003906 152.410156 189.714844 152.015625 188.40625 C 151.617188 187.097656 151.285156 185.773438 151.015625 184.429688 C 150.75 183.085938 150.550781 181.734375 150.414062 180.375 C 150.28125 179.011719 150.214844 177.648438 150.214844 176.277344 C 150.214844 174.910156 150.28125 173.542969 150.414062 172.183594 C 150.550781 170.820312 150.75 169.46875 151.015625 168.128906 C 151.285156 166.785156 151.617188 165.460938 152.015625 164.148438 C 152.410156 162.839844 152.871094 161.554688 153.394531 160.289062 C 153.917969 159.023438 154.503906 157.789062 155.148438 156.582031 C 155.792969 155.375 156.496094 154.203125 157.257812 153.066406 C 158.015625 151.925781 158.832031 150.828125 159.699219 149.773438 C 160.566406 148.714844 161.484375 147.703125 162.453125 146.734375 C 163.421875 145.765625 164.433594 144.847656 165.492188 143.980469 C 166.546875 143.113281 167.644531 142.296875 168.785156 141.539062 C 169.921875 140.777344 171.09375 140.074219 172.300781 139.429688 C 173.507812 138.785156 174.742188 138.199219 176.007812 137.675781 C 177.273438 137.152344 178.558594 136.691406 179.867188 136.296875 C 181.175781 135.898438 182.503906 135.566406 183.84375 135.300781 C 185.1875 135.03125 186.539062 134.832031 187.902344 134.699219 C 189.261719 134.5625 190.628906 134.496094 191.996094 134.496094 Z M 191.996094 134.496094 " fill-opacity="1" fill-rule="nonzero"></path>
    <g clip-path="url(#a4f7856115)">
      <path fill="#009b4d" d="M 188.328125 343.6875 C 188.546875 343.964844 188.792969 344.21875 189.066406 344.441406 C 189.339844 344.664062 189.636719 344.851562 189.953125 345.007812 C 190.273438 345.164062 190.605469 345.28125 190.949219 345.363281 C 191.292969 345.441406 191.644531 345.480469 191.996094 345.480469 C 192.351562 345.480469 192.699219 345.441406 193.042969 345.363281 C 193.390625 345.28125 193.722656 345.164062 194.039062 345.007812 C 194.355469 344.851562 194.652344 344.664062 194.925781 344.441406 C 195.203125 344.21875 195.449219 343.964844 195.664062 343.6875 L 279.089844 224.886719 L 279.367188 224.46875 C 280.410156 222.578125 281.394531 220.65625 282.3125 218.703125 C 283.230469 216.75 284.085938 214.769531 284.875 212.761719 C 285.667969 210.75 286.390625 208.71875 287.050781 206.664062 C 287.707031 204.609375 288.300781 202.53125 288.824219 200.4375 C 289.347656 198.34375 289.804688 196.234375 290.191406 194.113281 C 290.578125 191.988281 290.894531 189.855469 291.144531 187.710938 C 291.394531 185.566406 291.574219 183.417969 291.683594 181.261719 C 291.792969 179.105469 291.832031 176.949219 291.800781 174.789062 C 291.769531 172.628906 291.667969 170.476562 291.5 168.324219 C 291.328125 166.171875 291.085938 164.027344 290.777344 161.890625 C 290.46875 159.753906 290.089844 157.632812 289.640625 155.519531 C 289.195312 153.40625 288.679688 151.3125 288.097656 149.234375 C 287.511719 147.15625 286.863281 145.097656 286.144531 143.0625 C 285.429688 141.027344 284.648438 139.015625 283.800781 137.03125 C 282.953125 135.042969 282.042969 133.089844 281.066406 131.164062 C 280.09375 129.238281 279.058594 127.34375 277.960938 125.484375 C 276.863281 123.625 275.707031 121.804688 274.492188 120.019531 C 273.277344 118.234375 272.003906 116.492188 270.675781 114.792969 C 269.347656 113.089844 267.96875 111.433594 266.53125 109.820312 C 265.09375 108.207031 263.609375 106.644531 262.070312 105.128906 C 260.535156 103.613281 258.949219 102.148438 257.316406 100.738281 C 255.6875 99.324219 254.007812 97.964844 252.289062 96.664062 C 250.570312 95.359375 248.808594 94.113281 247.007812 92.921875 C 245.207031 91.734375 243.367188 90.601562 241.492188 89.53125 C 239.617188 88.460938 237.710938 87.453125 235.773438 86.507812 C 233.832031 85.558594 231.863281 84.675781 229.867188 83.859375 C 227.867188 83.039062 225.847656 82.285156 223.800781 81.597656 C 221.753906 80.910156 219.6875 80.289062 217.601562 79.734375 C 215.515625 79.179688 213.414062 78.695312 211.296875 78.277344 C 209.175781 77.859375 207.046875 77.511719 204.90625 77.234375 C 202.765625 76.953125 200.621094 76.746094 198.464844 76.605469 C 196.3125 76.464844 194.15625 76.394531 191.996094 76.394531 C 189.839844 76.394531 187.683594 76.464844 185.527344 76.605469 C 183.375 76.746094 181.226562 76.953125 179.085938 77.234375 C 176.945312 77.511719 174.816406 77.859375 172.699219 78.277344 C 170.582031 78.695312 168.476562 79.179688 166.390625 79.734375 C 164.304688 80.289062 162.238281 80.910156 160.191406 81.597656 C 158.148438 82.285156 156.125 83.039062 154.128906 83.859375 C 152.132812 84.675781 150.164062 85.558594 148.222656 86.507812 C 146.28125 87.453125 144.375 88.460938 142.5 89.53125 C 140.625 90.601562 138.789062 91.734375 136.988281 92.921875 C 135.1875 94.113281 133.425781 95.359375 131.703125 96.664062 C 129.984375 97.964844 128.308594 99.324219 126.675781 100.738281 C 125.042969 102.148438 123.460938 103.613281 121.921875 105.128906 C 120.382812 106.644531 118.898438 108.207031 117.460938 109.820312 C 116.027344 111.433594 114.644531 113.089844 113.316406 114.792969 C 111.988281 116.492188 110.714844 118.234375 109.5 120.019531 C 108.285156 121.804688 107.128906 123.625 106.03125 125.484375 C 104.9375 127.34375 103.902344 129.238281 102.925781 131.164062 C 101.953125 133.089844 101.042969 135.042969 100.195312 137.03125 C 99.347656 139.015625 98.566406 141.027344 97.847656 143.0625 C 97.132812 145.097656 96.480469 147.15625 95.898438 149.234375 C 95.3125 151.3125 94.800781 153.40625 94.351562 155.519531 C 93.902344 157.632812 93.527344 159.753906 93.214844 161.890625 C 92.90625 164.027344 92.667969 166.171875 92.496094 168.324219 C 92.324219 170.476562 92.222656 172.628906 92.195312 174.789062 C 92.164062 176.949219 92.203125 179.105469 92.3125 181.261719 C 92.421875 183.417969 92.601562 185.566406 92.847656 187.710938 C 93.097656 189.855469 93.414062 191.988281 93.800781 194.113281 C 94.191406 196.234375 94.644531 198.34375 95.167969 200.4375 C 95.695312 202.53125 96.285156 204.609375 96.945312 206.664062 C 97.601562 208.71875 98.328125 210.75 99.117188 212.761719 C 99.90625 214.769531 100.761719 216.75 101.679688 218.703125 C 102.601562 220.65625 103.582031 222.578125 104.625 224.46875 L 104.902344 224.886719 Z M 101.144531 176.140625 C 101.144531 174.414062 101.195312 172.691406 101.292969 170.96875 C 101.390625 169.246094 101.539062 167.527344 101.734375 165.816406 C 101.929688 164.101562 102.175781 162.394531 102.46875 160.695312 C 102.761719 158.996094 103.105469 157.304688 103.492188 155.625 C 103.882812 153.945312 104.320312 152.277344 104.804688 150.621094 C 105.289062 148.96875 105.820312 147.328125 106.398438 145.703125 C 106.976562 144.078125 107.601562 142.46875 108.269531 140.878906 C 108.941406 139.292969 109.65625 137.722656 110.414062 136.171875 C 111.171875 134.625 111.976562 133.097656 112.820312 131.59375 C 113.667969 130.09375 114.554688 128.613281 115.484375 127.160156 C 116.414062 125.710938 117.386719 124.285156 118.398438 122.886719 C 119.410156 121.488281 120.457031 120.121094 121.546875 118.785156 C 122.636719 117.449219 123.761719 116.140625 124.925781 114.871094 C 126.089844 113.597656 127.289062 112.355469 128.523438 111.152344 C 129.757812 109.945312 131.023438 108.777344 132.324219 107.644531 C 133.625 106.511719 134.957031 105.417969 136.320312 104.359375 C 137.683594 103.304688 139.074219 102.285156 140.496094 101.308594 C 141.917969 100.332031 143.363281 99.394531 144.839844 98.5 C 146.3125 97.601562 147.8125 96.75 149.335938 95.941406 C 150.855469 95.132812 152.402344 94.363281 153.96875 93.644531 C 155.535156 92.921875 157.121094 92.246094 158.726562 91.613281 C 160.332031 90.980469 161.953125 90.394531 163.589844 89.855469 C 165.226562 89.316406 166.878906 88.824219 168.546875 88.378906 C 170.214844 87.933594 171.890625 87.539062 173.578125 87.1875 C 175.269531 86.835938 176.964844 86.535156 178.671875 86.285156 C 180.378906 86.03125 182.089844 85.828125 183.808594 85.671875 C 185.527344 85.515625 187.246094 85.410156 188.972656 85.351562 C 190.695312 85.292969 192.417969 85.285156 194.144531 85.328125 C 195.867188 85.367188 197.589844 85.457031 199.308594 85.597656 C 201.027344 85.734375 202.742188 85.921875 204.449219 86.160156 C 206.160156 86.394531 207.859375 86.679688 209.550781 87.011719 C 211.242188 87.347656 212.925781 87.726562 214.59375 88.15625 C 216.265625 88.585938 217.921875 89.0625 219.566406 89.585938 C 221.210938 90.109375 222.835938 90.679688 224.449219 91.292969 C 226.058594 91.910156 227.652344 92.570312 229.226562 93.277344 C 230.796875 93.984375 232.351562 94.738281 233.878906 95.53125 C 235.410156 96.328125 236.917969 97.164062 238.402344 98.046875 C 239.882812 98.925781 241.339844 99.847656 242.769531 100.8125 C 244.199219 101.777344 245.601562 102.78125 246.976562 103.824219 C 248.347656 104.867188 249.691406 105.949219 251.003906 107.070312 C 252.3125 108.191406 253.59375 109.347656 254.839844 110.539062 C 256.085938 111.734375 257.292969 112.960938 258.46875 114.222656 C 259.644531 115.484375 260.785156 116.777344 261.886719 118.105469 C 262.988281 119.433594 264.050781 120.789062 265.078125 122.175781 C 266.101562 123.5625 267.085938 124.980469 268.03125 126.421875 C 268.972656 127.867188 269.875 129.335938 270.738281 130.832031 C 271.597656 132.324219 272.414062 133.84375 273.1875 135.386719 C 273.964844 136.925781 274.691406 138.488281 275.378906 140.070312 C 276.0625 141.652344 276.703125 143.253906 277.296875 144.875 C 277.890625 146.492188 278.4375 148.128906 278.9375 149.78125 C 279.4375 151.429688 279.890625 153.09375 280.296875 154.769531 C 280.703125 156.445312 281.0625 158.132812 281.371094 159.828125 C 281.679688 161.527344 281.941406 163.230469 282.15625 164.941406 C 282.367188 166.652344 282.53125 168.371094 282.648438 170.089844 C 282.761719 171.8125 282.828125 173.535156 282.84375 175.257812 C 282.863281 176.984375 282.832031 178.707031 282.75 180.429688 C 282.667969 182.152344 282.539062 183.871094 282.359375 185.589844 C 282.179688 187.304688 281.953125 189.011719 281.675781 190.714844 C 281.398438 192.417969 281.074219 194.109375 280.703125 195.792969 C 280.328125 197.480469 279.910156 199.152344 279.441406 200.8125 C 278.972656 202.472656 278.457031 204.117188 277.894531 205.746094 C 277.332031 207.378906 276.726562 208.992188 276.074219 210.585938 C 275.417969 212.183594 274.71875 213.757812 273.976562 215.316406 C 273.234375 216.871094 272.445312 218.40625 271.617188 219.917969 L 191.996094 333.285156 L 112.378906 219.917969 C 108.695312 213.210938 105.902344 206.148438 104 198.738281 C 102.097656 191.324219 101.144531 183.792969 101.144531 176.140625 Z M 101.144531 176.140625 " fill-opacity="1" fill-rule="nonzero"></path>
    </g>
  </symbol>
</svg>